<svg width="518" height="142" viewBox="0 0 518 142" fill="none" xmlns="http://www.w3.org/2000/svg">
<path d="M384 5C385 6 385 6 385.12 8.89161C385.117 10.8335 385.117 10.8335 385.114 12.8147C385.114 13.5268 385.114 14.239 385.114 14.9727C385.113 17.3373 385.105 19.7018 385.098 22.0664C385.096 23.7017 385.094 25.3369 385.093 26.9721C385.09 31.2843 385.08 35.5965 385.069 39.9087C385.058 44.3057 385.054 48.7026 385.049 53.0996C385.038 61.7331 385.021 70.3665 385 79C386.766 77.5574 388.531 76.1145 390.296 74.6714C391.279 73.8679 392.262 73.0644 393.275 72.2365C396.117 69.9037 398.926 67.5528 401.688 65.125C402.516 64.4057 403.345 63.6864 404.199 62.9453C406.34 61.0749 406.34 61.0749 406 58C404.02 57.01 402.04 56.02 400 55C400.33 54.01 400.66 53.02 401 52C409.25 52 417.5 52 426 52C426 53.32 426 54.64 426 56C424.983 56.2939 424.983 56.2939 423.945 56.5937C416.274 59.0589 410.996 62.6954 405 68C403.626 69.1674 402.251 70.3342 400.875 71.5C399.926 72.325 398.978 73.15 398 74C399.348 77.973 401.046 80.42 403.938 83.4375C408.289 88.1196 412.233 93.012 416.105 98.0896C420.462 103.752 424.465 107.881 431 111C431.33 111.66 431.66 112.32 432 113C425.39 115.203 418.131 114.935 411.75 112.125C406.076 108.903 402.78 104.192 399 99C397.387 96.99 395.762 94.9899 394.125 93C393.385 92.0925 392.645 91.185 391.883 90.25C390.043 87.9842 390.043 87.9842 388 86C387.01 86 386.02 86 385 86C384.865 89.064 384.766 92.122 384.688 95.1875C384.646 96.0518 384.604 96.9161 384.561 97.8066C384.473 102.39 384.476 104.332 387.395 108.051C389.813 109.981 389.813 109.981 392 111C392 111.99 392 112.98 392 114C382.76 114 373.52 114 364 114C364 113.01 364 112.02 364 111C365.176 110.319 365.176 110.319 366.375 109.625C369.649 107.598 369.955 106.677 371 103C371.255 99.9272 371.199 96.874 371.145 93.793C371.131 92.373 371.131 92.373 371.118 90.9244C371.098 88.795 371.073 86.6658 371.044 84.5366C370.997 80.744 370.97 76.9515 370.947 73.1587C370.906 66.7475 370.843 60.3368 370.764 53.9259C370.719 50.2136 370.68 46.5014 370.654 42.7888C370.628 39.1323 370.587 35.4761 370.537 31.8198C370.52 30.4408 370.509 29.0616 370.502 27.6825C370.493 25.7743 370.463 23.8662 370.432 21.9582C370.421 20.8765 370.41 19.7948 370.399 18.6804C369.949 15.6582 369.409 14.7988 367 13C364.9 11.8242 364.9 11.8242 363 11C363 10.34 363 9.68 363 9C365.561 8.32595 368.123 7.66058 370.688 7C371.409 6.80921 372.13 6.61843 372.873 6.42187C376.641 5.45842 380.076 4.63988 384 5Z" fill="white"/>
<path d="M233.996 52.6836C239.784 56.4859 242.519 61.2304 244.389 67.7852C245.712 74.7428 245.507 81.8763 245.562 88.9375C245.586 91.3362 245.614 93.7345 245.654 96.133C245.679 97.6153 245.693 99.0978 245.698 100.58C245.754 104.266 245.899 105.849 248 109C250.552 110.205 250.552 110.205 253 111C248.701 115.299 241.082 114.215 235.312 114.25C234.458 114.271 233.604 114.291 232.725 114.312C231.904 114.318 231.084 114.323 230.238 114.328C229.496 114.337 228.754 114.347 227.99 114.356C225.485 113.908 224.602 112.92 223 111C223.969 110.361 224.939 109.721 225.938 109.063C228.76 107.303 228.76 107.303 230 106C230.114 103.512 230.164 101.052 230.168 98.5625C230.171 97.8084 230.175 97.0543 230.178 96.2773C230.183 94.6733 230.185 93.0693 230.185 91.4653C230.187 89.0379 230.206 86.6109 230.225 84.1836C230.797 71.1149 230.797 71.1149 226 59.5C221.403 56.0522 216.565 56.4435 211 57C206.051 59.5274 203.933 63.9584 202 69C201.469 71.9145 201.414 74.7417 201.434 77.6992C201.427 78.4973 201.421 79.2954 201.415 80.1176C201.408 81.7907 201.411 83.4639 201.424 85.137C201.438 87.6922 201.403 90.2439 201.365 92.7988C201.364 94.4323 201.366 96.0658 201.371 97.6992C201.358 98.4576 201.345 99.2161 201.331 99.9975C201.403 104.104 201.789 105.76 204.539 108.894C205.351 109.589 206.163 110.284 207 111C207 111.66 207 112.32 207 113C202.995 114.335 199.318 114.184 195.125 114.188C194.322 114.2 193.519 114.212 192.691 114.225C188.338 114.235 184.965 114.031 181 112C181.812 111.218 182.624 110.437 183.461 109.632C186.976 105.385 186.705 101.21 186.629 95.8945C186.631 94.9335 186.634 93.9725 186.636 92.9823C186.635 90.9593 186.622 88.9362 186.597 86.9133C186.562 83.8117 186.576 80.713 186.596 77.6113C186.589 75.6432 186.579 73.6751 186.566 71.707C186.571 70.7789 186.576 69.8508 186.581 68.8945C186.646 63.9859 186.646 63.9859 184.152 60.0183C183.442 59.6823 182.732 59.3462 182 59C181.01 58.34 180.02 57.68 179 57C185.688 53.2041 193.262 50.7062 201 51C201 53.64 201 56.28 201 59C201.664 58.5179 202.328 58.0358 203.012 57.5391C203.895 56.9074 204.778 56.2758 205.688 55.625C206.558 54.9985 207.428 54.372 208.324 53.7266C216.359 48.5423 225.479 48.3107 233.996 52.6836Z" fill="white"/>
<path d="M252 52C261.9 52 271.8 52 282 52C282 52.99 282 53.98 282 55C280.02 55.66 278.04 56.32 276 57C277.96 65.0937 281.383 72.2941 285.153 79.6624C286.137 81.5866 287.111 83.5163 288.082 85.4473C290.541 91.0836 290.541 91.0836 294 96C295.692 92.068 297.383 88.1353 299.072 84.2019C299.647 82.8642 300.222 81.5266 300.798 80.1892C301.625 78.266 302.451 76.342 303.277 74.418C303.775 73.2606 304.272 72.1033 304.785 70.9109C306.698 66.3272 307.094 62.9632 307 58C304.525 57.01 304.525 57.01 302 56C302.33 54.68 302.66 53.36 303 52C309.93 52 316.86 52 324 52C323.67 53.32 323.34 54.64 323 56C321.276 56.6629 319.552 57.3252 317.827 57.9827C311.974 61.242 309.332 70.4306 306.898 76.3203C306.354 77.6138 306.354 77.6138 305.798 78.9333C304.65 81.6612 303.512 84.3928 302.375 87.125C301.229 89.8635 300.081 92.6012 298.931 95.3381C298.219 97.0332 297.51 98.7294 296.804 100.427C293.008 109.501 293.008 109.501 291 113C288.312 113.875 288.312 113.875 286 114C280.156 102.476 274.525 90.8506 268.925 79.2063C265.333 71.7347 265.333 71.7347 261.641 64.3125C260 61 260 61 259 58C258.01 57.6906 257.02 57.3812 256 57.0625C255.01 56.7119 254.02 56.3613 253 56C252.67 54.68 252.34 53.36 252 52Z" fill="white"/>
<path d="M121.543 0.492188C124 0.999988 124 0.999791 125.54 2.73047C127.047 5.07258 127.936 7.17809 128.818 9.81543C129.143 10.7729 129.469 11.7303 129.804 12.7168C130.147 13.7512 130.49 14.7859 130.844 15.8516C131.597 18.0759 132.351 20.3003 133.105 22.5244C133.497 23.6855 133.888 24.8467 134.291 26.043C144.034 54.9562 144.034 54.9566 156 83C156.346 83.7423 156.693 84.4852 157.05 85.25C166.457 105.112 181.186 121.922 201.93 130.164C214.746 133.963 228.051 133.573 240.062 127.734C243.83 125.51 246.809 122.979 250 120H253C252.776 123.635 252.229 124.793 249.48 127.281C242.275 132.136 235.283 136.175 227 139L223.871 140.102C210.181 143.279 194.556 142.396 182 136L179.289 134.648C172.718 131.029 167.381 126.177 162 121L159.91 119.031C155.367 114.641 151.376 109.911 147.418 104.992C143.463 100.098 139.395 95.301 135.299 90.5244C134.118 89.1397 132.955 87.7403 131.793 86.3398C122.304 75.2316 110.486 67.359 98 60L95 58C92.444 57.921 92.444 57.921 90 59C88.277 61.2087 88.277 61.2087 87.0195 64.0742C86.5004 65.1279 85.9811 66.1819 85.4463 67.2676C84.9071 68.3961 84.368 69.5247 83.8125 70.6875C74.2642 89.8151 62.4596 109.271 41.0547 116.535C32.5188 118.466 22.33 117.193 14.75 112.812C6.73811 107.277 3.04732 100.435 1 91C-0.153031 81.1334 2.24941 72.2668 8.01953 64.1641C17.9737 52.5538 32.2104 45.0242 47.5557 43.7959C50.2697 43.6971 52.9718 43.6723 55.6875 43.6875L58.6016 43.6914C65.3807 43.7823 71.4724 44.5538 78.0273 46.3438C82.979 47.4874 82.979 47.4874 88 47C90.6703 43.9466 92.4331 40.4523 94.3125 36.875C95.443 34.8436 96.5785 32.815 97.7187 30.7891L99.3984 27.7783C102.812 21.8559 106.875 16.4387 111 11L113.219 7.92969L115.312 5.125L117.113 2.69531C119 1 119 1 121.543 0.492188ZM84 53C72.0771 47.0386 54.8458 45.8321 42.1328 49.3125L40 50C27.7949 53.7666 17.3275 59.1654 10 70C6.21658 78.2195 4.60932 87.1486 6.42578 96.0977C8.31594 102.36 11.6625 106.472 17.1602 109.902C23.3254 112.285 31.3613 112.229 37.6016 110.121L40 109C57.6659 101.736 67.3705 87.3258 76.4941 71.25C77.2546 69.8929 77.2546 69.8927 78 68.5625C80.8931 63.4391 83.5326 58.988 84 53ZM114 18C109.889 23.1973 106.292 28.5879 102.9 34.2793L101.187 37.1875L99.416 40.1309L97.7305 42.9805C95.7332 46.3461 94.5844 49.1205 94 53C103.97 58.2591 113.431 63.6051 122.227 70.6836L125 73C128.963 76.2592 132.696 79.5005 136 83.4375L138 86C139 84 139 84 138.386 82.0811C138.027 81.262 137.68 80.4669 137.332 79.6719C136.927 78.7166 136.534 77.7895 136.141 76.8623C130.443 63.5142 125.965 49.932 121.785 36.043C121.401 34.7645 121.401 34.7642 121.024 33.5107C120.538 31.9161 120.052 30.3213 119.566 28.7266C118.36 24.5991 117.585 20.7217 114 18Z" fill="white"/>
<path d="M349 52C350 53 350 53 350.111 55.1434C350.106 56.0884 350.1 57.0334 350.094 58.0071C350.092 59.0752 350.089 60.1434 350.086 61.2439C350.081 62.4073 350.076 63.5708 350.07 64.7695C350.079 67.209 350.089 69.6484 350.102 72.0879C350.118 75.953 350.125 79.8168 350.1 83.6819C350.079 87.3995 350.102 91.1146 350.133 94.832C350.115 95.9894 350.098 97.1468 350.08 98.3393C349.934 103.994 349.934 103.994 352.616 108.64C354.731 109.94 354.731 109.94 358 111C357 113 357 113 355.224 113.615C351.191 114.314 347.146 114.185 343.062 114.188C342.169 114.2 341.275 114.212 340.354 114.225C335.8 114.235 332.128 114.18 328 112C328.784 111.402 329.567 110.804 330.375 110.188C332.928 108.06 334.804 106.485 335.254 103.072C335.256 101.981 335.256 101.981 335.259 100.867C335.265 100.04 335.271 99.212 335.278 98.3591C335.274 97.4685 335.27 96.5778 335.266 95.6602C335.268 94.7417 335.269 93.8232 335.271 92.8768C335.273 90.9342 335.269 88.9916 335.261 87.0491C335.25 84.0774 335.261 81.1064 335.273 78.1348C335.272 76.2474 335.27 74.36 335.266 72.4727C335.27 71.584 335.274 70.6954 335.278 69.7798C335.268 68.5335 335.268 68.5335 335.259 67.262C335.257 66.5338 335.256 65.8056 335.254 65.0553C334.766 61.1083 332.884 58.6215 330 56C332.038 55.3226 334.081 54.6586 336.125 54C337.262 53.6288 338.399 53.2575 339.57 52.875C342.895 52.0268 345.589 51.7571 349 52Z" fill="white"/>
<path d="M452.231 50.6601C461.297 48.4992 469.735 49.778 478 54C482.284 57.391 485.513 61.4898 486.286 67.0586C486.408 69.453 486.442 71.8328 486.442 74.2304C486.455 75.1027 486.467 75.9753 486.481 76.874C486.522 79.6452 486.544 82.416 486.563 85.1875C486.587 87.9695 486.614 90.7513 486.654 93.5332C486.678 95.2603 486.693 96.9884 486.698 98.7158C486.761 103.651 486.761 103.651 489 108L496 107C495.771 110.21 494.938 111.056 492.5 113.25C488.133 115.434 484.79 116.127 480 115C477.263 113.355 475.007 111.491 473 109V107L470.989 108.242L468.313 109.875L465.676 111.492C458.519 115.525 452.131 115.74 444 115C439.735 113.805 437.002 111.412 434.563 107.75C432.673 103.897 432.093 100.209 433 96C435.572 89.6004 439.777 85.7725 446 83C450.291 81.5091 454.636 80.2532 459 79C463.855 77.4815 467.714 76.0754 471 72C472.748 68.5039 471.836 64.7192 471 61C469.304 58.1913 468.192 56.5343 465.188 55.1875C460.191 54.7591 456.442 54.5361 452 57L452.395 59.0117C453.523 66.2316 453.523 66.232 450.875 70.125C448.001 71.9999 448 72.0001 445.438 72.625C443.001 72 443 71.9997 440.688 69.875C438.646 66.3958 438.208 64.9644 439 61C442.041 55.5359 446.415 52.6745 452.231 50.6601ZM472 79C465.085 79 456.043 84.418 451.25 89.1875C447.89 93.5829 448.31 98.7275 449 104C450.4 106.8 450.401 106.8 455 109C460.424 109.602 464.242 108.654 469 106C472.358 102.216 472.358 102.216 472.264 92.7402L472.188 89.6875C472.141 86.1244 472.088 82.5623 472 79Z" fill="white"/>
<path d="M514 102C516.375 103.625 516.375 103.625 518 106C517.935 109.174 517.467 111.196 515.875 113.938C512.771 115.696 510.337 114.849 507 114C504.686 110.53 504.49 109.082 505 105C507.688 102.013 510.063 101.311 514 102Z" fill="white"/>
</svg>
